<?xml version="1.0" encoding="UTF-8"?>
<svg id="Layer_2" data-name="Layer 2" xmlns="http://www.w3.org/2000/svg" viewBox="0 0 658.64 289.51">
  <defs>
    <style>
      .cls-1 {
        fill: #fff400;
      }

      .cls-2, .cls-3 {
        isolation: isolate;
      }

      .cls-3 {
        opacity: .9;
      }
    </style>
  </defs>
  <g>
    <rect class="cls-1" x="-836.85" y="80.65" width="2013.65" height="176.7" transform="translate(-23.34 27.28) rotate(-8.59)"/>
    <polygon class="cls-3" points="-166.96 129.17 -72.99 114.97 193.08 254.76 83.49 271.27 -166.96 129.17"/>
    <polygon class="cls-3" points="21.04 101.15 115.05 86.97 381.23 226.6 271.59 243.1 21.04 101.15"/>
    <polygon class="cls-3" points="211.04 70.32 305.7 55.97 573.74 197.31 463.34 214.01 211.04 70.32"/>
    <polygon class="cls-3" points="405.04 43.17 498.56 28.97 763.35 168.77 654.28 185.29 405.04 43.17"/>
    <polygon class="cls-3" points="611.54 11.49 705.22 -2.73 970.58 137.3 861.22 153.84 611.54 11.49"/>
    <path class="cls-1" d="m130.66,121.21l447.5-67.1c4.2-.59,6.6,6.45,5.37,15.83l-10.2,78.38c-1.24,9.38-5.6,17.44-9.8,18.03L116.13,233.47c-4.2.59-6.6-6.45-5.37-15.83l10.2-78.38c1.12-9.28,5.53-17.34,9.71-18.05h0Z"/>
  </g>
  <g class="cls-2">
    <g class="cls-2">
      <path d="m142.34,148.39l-2.45-16.23,43.87-6.63,2.45,16.23-16.05,2.42,10.81,71.54-11.77,1.78-10.81-71.54-16.05,2.42Z"/>
    </g>
    <g class="cls-2">
      <path d="m187.19,149.79l1.78,11.8.15-.02c.2-2.04.6-3.97,1.2-5.78.6-1.81,1.35-3.39,2.27-4.74.92-1.35,1.96-2.45,3.11-3.3,1.15-.84,2.4-1.37,3.75-1.57.7-.11,1.5-.02,2.42.26l2.45,16.23c-.53-.09-1.15-.14-1.86-.16-.72-.02-1.4.02-2.05.12-1.95.29-3.52,1.08-4.71,2.34-1.19,1.27-2.06,2.89-2.6,4.86-.55,1.97-.81,4.21-.79,6.72.02,2.51.25,5.2.68,8.07l4.33,28.64-10.65,1.61-9.6-63.55,10.12-1.53Z"/>
      <path d="m242.08,206.5l-1.34-8.85-.22.03c-.79,3.89-2.14,6.82-4.04,8.78-1.9,1.96-3.98,3.12-6.23,3.46-2.85.43-5.28.17-7.29-.79-2.01-.95-3.71-2.48-5.1-4.57-1.39-2.09-2.54-4.73-3.46-7.9-.92-3.17-1.67-6.73-2.26-10.66l-5.91-39.09,10.65-1.61,5.42,35.89c.79,5.25,1.88,9.08,3.27,11.51,1.39,2.43,3.36,3.45,5.91,3.07,2.9-.44,4.79-2.17,5.66-5.19.87-3.02.82-7.77-.16-14.25l-5.03-33.31,10.65-1.61,9.6,63.55-10.12,1.53Z"/>
      <path d="m269.4,186.78c1.98,2.3,4.48,3.22,7.47,2.77,2.15-.32,3.87-1.48,5.15-3.48,1.28-2,1.95-4,2-6.02l9.37-1.42c-.35,7.85-1.82,13.65-4.43,17.39-2.61,3.75-6.11,5.95-10.5,6.62-3.05.46-5.92.08-8.61-1.15-2.69-1.23-5.11-3.19-7.25-5.88-2.15-2.69-3.99-6.02-5.53-9.98-1.54-3.96-2.69-8.39-3.43-13.31-.72-4.75-.91-9.25-.58-13.49.33-4.24,1.14-7.99,2.44-11.25,1.3-3.25,3.03-5.93,5.19-8.01,2.16-2.09,4.72-3.35,7.67-3.8,3.3-.5,6.33.11,9.1,1.83,2.76,1.72,5.2,4.22,7.31,7.51,2.11,3.29,3.85,7.13,5.23,11.53,1.38,4.4,2.34,9.08,2.89,14.02l-27.97,4.23c1,5.63,2.5,9.6,4.48,11.9Zm6.98-35.25c-1.62-2.1-3.73-2.96-6.33-2.56-1.7.26-3.04.94-4.02,2.05-.98,1.11-1.71,2.42-2.17,3.91-.46,1.5-.72,3.04-.76,4.64-.04,1.6,0,3.02.14,4.25l17.32-2.62c-1.17-4.35-2.56-7.58-4.18-9.68Z"/>
      <path d="m349.94,124.39c-.98-1.74-2.1-3.22-3.36-4.46-1.26-1.23-2.61-2.14-4.05-2.72-1.44-.58-2.89-.76-4.34-.54-2.65.4-4.77,1.58-6.37,3.54-1.6,1.96-2.76,4.44-3.48,7.44-.72,3-1.07,6.34-1.05,10.03.02,3.69.32,7.45.9,11.3.56,3.69,1.36,7.23,2.41,10.64,1.05,3.4,2.36,6.41,3.93,9.02,1.57,2.61,3.41,4.62,5.51,6.02,2.1,1.4,4.48,1.9,7.13,1.5,3.6-.54,6.14-2.77,7.62-6.68,1.48-3.91,2-8.85,1.56-14.82l11.4-1.72c.53,5.54.5,10.61-.08,15.23-.58,4.61-1.66,8.63-3.24,12.06-1.58,3.43-3.62,6.16-6.12,8.22-2.5,2.05-5.4,3.33-8.7,3.83-4.1.62-7.96,0-11.59-1.83-3.63-1.84-6.87-4.64-9.74-8.4-2.87-3.76-5.32-8.31-7.36-13.66-2.04-5.35-3.54-11.22-4.5-17.61-.99-6.55-1.31-12.73-.96-18.53.35-5.79,1.34-10.95,2.96-15.47,1.62-4.52,3.88-8.21,6.8-11.08,2.92-2.87,6.42-4.62,10.52-5.24,2.95-.45,5.84-.17,8.68.83,2.83,1,5.49,2.67,7.97,5.02,2.48,2.35,4.69,5.39,6.63,9.12,1.94,3.73,3.47,8.11,4.59,13.14l-11.4,1.72c-.53-2.18-1.29-4.14-2.27-5.88Z"/>
      <path d="m380.28,120.62l1.78,11.8.15-.02c.2-2.04.6-3.97,1.2-5.78.6-1.81,1.35-3.39,2.27-4.74.92-1.35,1.96-2.45,3.11-3.3,1.15-.84,2.4-1.37,3.75-1.57.7-.11,1.5-.02,2.42.26l2.45,16.23c-.53-.09-1.15-.14-1.86-.16-.72-.02-1.4.02-2.05.12-1.95.29-3.52,1.08-4.71,2.35-1.19,1.27-2.06,2.89-2.6,4.86-.55,1.97-.81,4.21-.79,6.72.02,2.51.25,5.2.68,8.07l4.33,28.64-10.65,1.61-9.6-63.55,10.12-1.53Z"/>
      <path d="m398.14,107.86l-2.17-14.38,10.65-1.61,2.17,14.38-10.65,1.61Zm12.13,8.22l9.6,63.55-10.65,1.61-9.6-63.55,10.65-1.61Z"/>
      <path d="m429.01,113.26l1.3,8.6.15-.02c.9-3.49,2.21-6.28,3.91-8.39,1.7-2.1,3.83-3.34,6.38-3.73,2.45-.37,4.8.07,7.06,1.32,2.26,1.25,4.21,3.76,5.86,7.54.73-2.96,1.92-5.65,3.57-8.08,1.65-2.43,3.83-3.85,6.53-4.26,2.05-.31,4.01-.19,5.88.37,1.87.56,3.57,1.64,5.09,3.25,1.52,1.62,2.85,3.83,3.99,6.63,1.14,2.81,2.02,6.26,2.64,10.35l6.42,42.53-10.65,1.61-5.44-36.02c-.32-2.13-.67-4.13-1.06-6-.39-1.87-.91-3.47-1.57-4.79-.66-1.32-1.49-2.33-2.49-3.02-1-.69-2.25-.92-3.75-.69s-2.64.88-3.42,1.96c-.78,1.08-1.32,2.42-1.62,4.02-.29,1.6-.39,3.37-.27,5.32.12,1.95.32,3.91.62,5.88l5.35,35.4-10.65,1.61-5.38-35.65c-.28-1.88-.59-3.75-.92-5.58-.33-1.84-.8-3.5-1.41-5.01-.61-1.5-1.42-2.66-2.44-3.47-1.02-.81-2.38-1.09-4.08-.83-.5.08-1.13.36-1.9.85-.77.49-1.46,1.31-2.08,2.45-.62,1.14-1.06,2.72-1.32,4.73-.26,2.01-.15,4.57.32,7.69l5.57,36.88-10.65,1.61-9.6-63.55,10.05-1.52Z"/>
      <path d="m505.3,151.15c1.98,2.3,4.47,3.22,7.47,2.77,2.15-.32,3.87-1.48,5.15-3.48,1.28-2,1.95-4,2-6.02l9.37-1.42c-.35,7.85-1.82,13.65-4.43,17.39-2.61,3.75-6.11,5.95-10.5,6.62-3.05.46-5.92.08-8.61-1.15-2.69-1.23-5.11-3.19-7.25-5.88-2.15-2.69-3.99-6.02-5.53-9.98-1.54-3.96-2.69-8.4-3.43-13.31-.72-4.75-.91-9.25-.58-13.49.33-4.24,1.14-7.99,2.44-11.25,1.3-3.25,3.03-5.93,5.19-8.01,2.16-2.09,4.72-3.35,7.67-3.8,3.3-.5,6.33.11,9.1,1.83,2.76,1.72,5.2,4.22,7.31,7.51,2.11,3.29,3.85,7.13,5.23,11.53,1.38,4.4,2.34,9.08,2.89,14.02l-27.97,4.23c1,5.63,2.5,9.6,4.48,11.9Zm6.98-35.25c-1.62-2.1-3.73-2.96-6.33-2.56-1.7.26-3.04.94-4.02,2.05-.98,1.11-1.71,2.42-2.17,3.91-.46,1.5-.72,3.04-.76,4.64-.04,1.6,0,3.02.14,4.25l17.32-2.62c-1.17-4.35-2.56-7.58-4.18-9.68Z"/>
    </g>
  </g>
</svg>