<?xml version="1.0" encoding="utf-8"?>
<!-- Generator: Adobe Illustrator 26.5.2, SVG Export Plug-In . SVG Version: 6.00 Build 0)  -->
<svg version="1.1" id="Layer_1" xmlns="http://www.w3.org/2000/svg" xmlns:xlink="http://www.w3.org/1999/xlink" x="0px" y="0px"
	 viewBox="0 0 1366 768" style="enable-background:new 0 0 1366 768;" xml:space="preserve">
<style type="text/css">
	.st0{fill:#FFF900;}
	.st1{font-family:'HelveticaNeue-CondensedBold';}
	.st2{font-size:134.0685px;}
	.st3{fill:none;stroke:#000000;}
</style>
<g>
	<polygon class="st0" points="1366,0 1366,240.9 1363.5,241.4 1197.4,274.6 1197.4,274.6 1195.5,275 1152.9,283.5 978.3,318.5 
		978.3,318.5 953.9,323.4 935.7,327 787.8,356.6 711.1,372 544.2,405.4 543.9,405.5 501.3,414 467.6,420.7 378.2,438.6 326.7,448.9 
		284,457.5 134.6,487.4 109.4,492.4 0,514.3 0,259.5 50.4,249.4 96.4,240.2 139,231.6 216.4,216.1 313.6,196.7 313.6,196.7 
		356.2,188.2 438.2,171.7 438.2,171.7 460,167.4 530.8,153.2 573.4,144.7 626.1,134.1 681.8,123 748,109.7 751.2,109.1 790.6,101.2 
		869.6,85.4 965.3,66.2 994.7,60.3 1007.9,57.7 1035.7,52.1 1182.5,22.8 1225.1,14.2 1279.2,3.4 1296.2,0 	"/>
	<polygon points="378.2,438.6 326.7,448.9 284,457.5 134.6,487.4 80.9,456.4 0,409.7 0,259.5 50.4,249.4 104.8,280.8 325.4,408.2 	
		"/>
	<polygon points="712.8,373 385,183.7 281.2,204.5 238.6,213 238.6,213 141.4,232.4 469.2,421.7 	"/>
	<polygon points="1009.4,312.1 1007.5,312.5 964.9,321 790.3,356 790.3,356 765.9,360.9 438.1,171.6 560,147.2 602.6,138.7 
		681.6,122.9 	"/>
	<polygon points="1366,53.5 1366,240.9 1363.5,241.4 1314.3,213 1093.8,85.7 1035.7,52.1 1182.5,22.8 1225.1,14.2 1279.2,3.4 
		1338.2,37.4 	"/>
	<polygon points="1321.7,249.1 1319.8,249.5 1277.2,258 1102.6,293 1102.6,293 1078.2,297.9 750.4,108.6 872.3,84.2 914.9,75.7 
		993.9,59.9 	"/>
	<polygon class="st0" points="1366,32 1366,202.8 1314.3,213 1273.2,221.1 1028.8,269.4 1028.8,269.4 959.1,283.1 714.7,331.3 
		714.7,331.3 659.5,342.2 415.1,390.5 325.4,408.2 80.9,456.4 0,472.4 0,301.5 104.8,280.8 194.5,263.1 439,214.9 494.1,204 
		738.6,155.8 808.2,142 1052.6,93.8 1093.8,85.7 1338.2,37.4 	"/>
	<text transform="matrix(0.9811 -0.1936 0.1936 0.9811 567.9076 313.5461)" class="st1 st2">True crime</text>
	<text transform="matrix(0.9811 -0.1936 0.1936 0.9811 -36.8535 432.8746)" class="st3 st1 st2"> rue crime</text>
	<text transform="matrix(0.9811 -0.1936 0.1936 0.9811 1158.147 195.61)" class="st3 st1 st2">True </text>
	<rect x="1436.3" y="347.4" style="fill:none;" width="0" height="2.6"/>
</g>
</svg>
